<svg xmlns="http://www.w3.org/2000/svg" xmlns:xlink="http://www.w3.org/1999/xlink" width="16" height="13" viewBox="0 0 16 13"><defs><path id="rskwa" d="M1059.286 524.455c-.512 0-1.036-.05-1.572-.148a7.39 7.39 0 0 1-2.482 1.182c-.214.056-.47.105-.768.148h-.026a.273.273 0 0 1-.184-.074.31.31 0 0 1-.102-.193.196.196 0 0 1-.01-.06c0-.022.002-.042.005-.06a.201.201 0 0 1 .018-.056l.023-.046.03-.05c.022-.035.034-.05.036-.047.003.003.017-.012.04-.046.025-.034.036-.048.036-.041.03-.037.099-.114.206-.231.107-.117.184-.208.232-.272l.2-.268c.087-.114.162-.232.224-.355.063-.124.124-.259.183-.407-.738-.443-1.318-.988-1.74-1.634a3.714 3.714 0 0 1-.635-2.068c0-.856.28-1.647.84-2.373.559-.726 1.322-1.3 2.29-1.722.967-.422 2.019-.633 3.156-.633s2.189.211 3.156.633c.967.422 1.73.996 2.29 1.722s.84 1.517.84 2.373c0 .855-.28 1.646-.84 2.372-.56.727-1.323 1.3-2.29 1.722-.967.422-2.02.632-3.156.632zm-1.366-1.31c.464.086.92.13 1.366.13.91 0 1.762-.16 2.553-.481.792-.32 1.421-.754 1.889-1.302.467-.548.7-1.136.7-1.763 0-.628-.233-1.216-.7-1.764-.468-.548-1.097-.982-1.889-1.302a6.753 6.753 0 0 0-2.553-.48c-.911 0-1.762.16-2.554.48-.791.32-1.42.754-1.888 1.302-.467.548-.701 1.136-.701 1.764 0 .504.158.99.473 1.459.316.467.76.874 1.33 1.218l.867.517-.313.776c.203-.123.387-.244.554-.36l.393-.287zm8.705 2.65c.06.148.12.283.183.406.063.123.137.242.224.355l.2.268c.048.065.125.156.232.273a6.593 6.593 0 0 1 .282.318.434.434 0 0 1 .067.097l.022.046.018.055c.011.037.013.057.004.06-.009.003-.012.023-.009.06a.345.345 0 0 1-.116.203.263.263 0 0 1-.196.065 7.188 7.188 0 0 1-.768-.148 7.39 7.39 0 0 1-2.482-1.182 8.693 8.693 0 0 1-1.572.148c-1.613 0-3.018-.406-4.214-1.219.345.025.607.037.786.037.958 0 1.878-.139 2.758-.415a7.811 7.811 0 0 0 2.358-1.191c.744-.567 1.315-1.22 1.714-1.957.399-.74.598-1.52.598-2.346 0-.474-.068-.942-.205-1.403.768.437 1.375.985 1.821 1.643.447.659.67 1.367.67 2.124 0 .738-.211 1.43-.634 2.073-.422.643-1.003 1.186-1.74 1.63z"/></defs><g><g transform="translate(-1053 -515)"><use fill="#fff" xlink:href="#rskwa"/></g></g></svg>