<svg xmlns="http://www.w3.org/2000/svg" xmlns:xlink="http://www.w3.org/1999/xlink" width="32" height="26" viewBox="0 0 32 26"><defs><path id="loh3a" d="M1456.997 3570.011a.995.995 0 0 1 1.003.988c0 .545-.449.988-1.003.988a.996.996 0 0 1-1.003-.988c0-.546.45-.988 1.003-.988zm23.26-3.101a2.532 2.532 0 0 1-.649 3.514c.28.408.445.901.445 1.432a2.538 2.538 0 0 1-2.536 2.534h-7.354a17.11 17.11 0 0 1-7.398-1.693l-.97-.468-.795-.23v1c0 .858-.879 2-1.736 2h-7.709a1.556 1.556 0 0 1-1.555-1.553v-14.958c0-.821.71-1.49 1.582-1.49h7.843c.872 0 1.582.669 1.582 1.49l-.007.512h2l2.7-2.468a9.229 9.229 0 0 0 2.808-4.073s.606-1.786.624-1.83c.4-.99 1.35-1.63 2.418-1.63 1.437 0 2.45 1.564 2.45 3v1c-.003 1.515-.165 3.449-.782 4.832l-.423.947h6.668a2.531 2.531 0 1 1 1.443 4.617 2.533 2.533 0 0 1-.649 3.515zM1460 3574v-16h-9v16h9zm21.007-12.904c0-.558-.45-1.096-1.007-1.096h-8a.985.985 0 0 1-.857-.495.8.8 0 0 1 .034-.56l.932-2.095a9.484 9.484 0 0 0 .824-3.859l.004-1.916c0-.598-.485-1.085-1.082-1.085-1.14 0-1.676.632-1.855 1.01-1.75 7.061-7 9-7 9h-2v11l1.029.096 1.484.309a15.955 15.955 0 0 0 6.915 1.587h7.567a1.012 1.012 0 0 0 0-2.024h-.47a.801.801 0 0 1 0-1.604h1.138a1.012 1.012 0 0 0 0-2.024h-.471a.801.801 0 0 1 0-1.604h1.138a1.012 1.012 0 0 0 0-2.024h-.47a.801.801 0 0 1 0-1.604h1.138c.556 0 1.01-.454 1.01-1.012z"/></defs><g><g opacity=".8" transform="translate(-1450 -3549)"><use xlink:href="#loh3a"/></g></g></svg>