<svg xmlns="http://www.w3.org/2000/svg" xmlns:xlink="http://www.w3.org/1999/xlink" width="30" height="35" viewBox="0 0 30 35"><defs><path id="c4t4a" d="M559.967 3546.4c-.643 3.95-3.132 7.441-6.664 9.356-.323.775-.688 1.51-1.095 2.194-1.281 2.153-3.46 4.307-5.208 5.05-.2 1.834 1.607 2.921 3.447 3.335.004 0 .007.002.01.003.358.084.543.279.543.662v4h2c1.341 0 2.018.931 2.018 2.271v1.919a.81.81 0 0 1-.81.81H535.87a.81.81 0 0 1-.81-.81v-1.919c0-1.34.599-2.271 1.94-2.271h2l-.004-3.875a.81.81 0 0 1 .622-.787c.004 0 .007-.002.01-.003 1.828-.411 3.552-1.514 3.372-3.336-1.78-.73-3.907-2.863-5.207-5.05a17.29 17.29 0 0 1-1.096-2.193c-3.532-1.914-6.021-5.405-6.665-9.356a2.5 2.5 0 0 1 .568-2.025c.483-.568.654-.376 1.4-.376h3l-.018-1.283c0-.946.77-1.717 1.718-1.717h16.6c.947 0 1.718.77 1.718 1.717l-.018 1.283h2c.746 0 1.917-.192 2.4.376a2.5 2.5 0 0 1 .567 2.025zM536 3554c-.566-2.07-1.018-5.071-1.018-7.408L535 3545s-4-.4-4 1c.459 2.817 2.776 6.245 5 8zm1 18c-.447 0-1 .553-1 1v2h18v-2c0-.447-.553-1-1-1zm3-4v3h10v-3zm9-1c-1.643-.572-2.982-2.685-3-4-.313.046-.681 0-1 0-.293 0-.712.039-1 0-.013.978-.168 1.757-.708 2.6-.164.256-2.092 1.179-2.292 1.4zm5-25h-18v5c0 3.99 1.334 8.2 3 11 1.587 2.668 3.838 4 6 4s4.413-1.332 6-4c1.666-2.8 3-8.01 3-12zm-18 0c0-.054-.428-.626 0 0zm18 0c.053 0 .75-.46 0 0zm1 3l.018 1.592c0 2.337-.298 4.6-1.041 7.373 2.203-1.675 4.56-5.133 5.023-7.965 0-1.4-4-1-4-1zm-5.253 5.165l-1.782 1.634.42 2.306a.747.747 0 0 1-.324.75.853.853 0 0 1-.859.059l-2.202-1.09-2.202 1.09a.859.859 0 0 1-.86-.059.746.746 0 0 1-.324-.75l.42-2.306-1.781-1.634a.736.736 0 0 1-.207-.786.804.804 0 0 1 .659-.523l2.462-.337 1.101-2.098a.822.822 0 0 1 .732-.428c.31 0 .594.166.732.428l1.1 2.099 2.463.336a.805.805 0 0 1 .658.522.736.736 0 0 1-.206.787zM549 3550l-2.826-.02a.814.814 0 0 1-.615-.42L545 3547l-.558 2.56a.814.814 0 0 1-.615.42L541 3550l2.48.98a.74.74 0 0 1 .235.68l-.728 2.155 1.633-1.536a.86.86 0 0 1 .76 0l1.632 1.536-.727-2.155a.74.74 0 0 1 .234-.68z"/></defs><g><g transform="translate(-530 -3541)"><use fill="#c31e1e" xlink:href="#c4t4a"/></g></g></svg>