<svg xmlns="http://www.w3.org/2000/svg" xmlns:xlink="http://www.w3.org/1999/xlink" width="31" height="29" viewBox="0 0 31 29"><defs><path id="kxq8a" d="M1481 3711.806v1.262c0 .75-1.234.932-2 .932v16c0 .75-.234 1-1 1h-12v2l5 4c.31.222 1.227.697 1 1h-1.07a.7.7 0 0 1-.411-.132l-4.52-3.868v3c0 .375-.115 1-.499 1s-.5-.625-.5-1v-3l-4.52 3.868c-.308.222-.316.131-1.48.131-.227-.302.69-.777 1-1l5-4v-2l-12.034.078c-.765 0-.966-.328-.966-1.078v-16c-.766 0-2-.18-2-.93v-1.263c0-.75.234-.806 1-.806h14v-1c0-.51 1-.51 1 0v1h14c.766 0 1 .056 1 .806zm-3 18.193v-16h-25v16zm2-17v-1h-29v1zm-9.002 9.305c0 3.133-2.557 5.682-5.7 5.682-3.145 0-5.298-2.853-5.298-5.987 0-.324.674 0 1 0h4v-5c0-.324.674 0 1 0 3.144 0 4.998 2.172 4.998 5.305zm-.928.087c-.07-2.677-1.854-4.103-4.07-4.392l-.113 4.305c0 .325-.561.696-.887.696h-4c.29 2.208 2.125 3.963 4.418 3.982a4.596 4.596 0 0 0 4.652-4.591zm-6.07-5.392v3c0 .325-.674 1-1 1h-3c-.326 0-1.014-.36-1.014-.684 0-2.371 1.936-4.3 4.315-4.3.326 0 .699.66.699.984zm-1 0c-1.257.24-2.76 1.747-3 3h3z"/></defs><g><g opacity=".78" transform="translate(-1450 -3709)"><use xlink:href="#kxq8a"/></g></g></svg>