<svg xmlns="http://www.w3.org/2000/svg" xmlns:xlink="http://www.w3.org/1999/xlink" width="37" height="36" viewBox="0 0 37 36"><defs><path id="57tea" d="M555.245 3724.765a.478.478 0 0 0-.14.427l1.382 7.963a2.383 2.383 0 0 1-.97 2.357 2.447 2.447 0 0 1-2.568.184l-7.236-3.76a.494.494 0 0 0-.454 0l-7.236 3.76c-.827.43-1.811.36-2.568-.184a2.382 2.382 0 0 1-.97-2.357l1.382-7.963a.478.478 0 0 0-.14-.427l-5.854-5.64a2.375 2.375 0 0 1-.617-2.47 2.416 2.416 0 0 1 1.968-1.64l8.09-1.163a.488.488 0 0 0 .368-.263l3.618-7.246a2.426 2.426 0 0 1 2.186-1.343c.935 0 1.773.514 2.187 1.343l3.618 7.246a.488.488 0 0 0 .367.263l8.09 1.162c.926.133 1.68.761 1.969 1.64a2.376 2.376 0 0 1-.617 2.47zm-.698-1.181l6.306-6.03a.496.496 0 0 0 .132-.528.509.509 0 0 0-.424-.351L552 3715c-.856-.122-1.747-.216-2.13-.977l-3.897-7.746a.515.515 0 0 0-.47-.288.514.514 0 0 0-.472.288l-3.897 7.746c-.383.76-1.279.855-2.134.977l-8.557 1.675a.508.508 0 0 0-.424.35.496.496 0 0 0 .133.53l6.305 6.029c.62.592.902 1.444.755 2.28l-1.488 8.515c-.05.284.13.447.209.504.08.056.292.173.553.038l7.794-4.019a2.662 2.662 0 0 1 2.444 0l7.794 4.02c.26.134.474.017.553-.04a.498.498 0 0 0 .21-.503l-1.49-8.515a2.545 2.545 0 0 1 .756-2.28zm2.55-15.895l-1.036 1.408a.977.977 0 0 1-.79.398c-.199 0-.4-.06-.572-.185a.957.957 0 0 1-.216-1.346l1.035-1.408a.983.983 0 0 1 1.362-.214.957.957 0 0 1 .216 1.347zm-20.828 1.616a.978.978 0 0 1-.572.184.978.978 0 0 1-.79-.397l-1.036-1.409a.956.956 0 0 1 .216-1.346.983.983 0 0 1 1.363.213l1.035 1.408a.957.957 0 0 1-.216 1.347zm-6.318 18.537l-1.675.538a.977.977 0 0 1-1.23-.619.962.962 0 0 1 .627-1.215l1.675-.537a.978.978 0 0 1 1.23.619.961.961 0 0 1-.627 1.214zm16.51 10.453v1.74a.97.97 0 0 1-.975.965.97.97 0 0 1-.975-.964v-1.741a.97.97 0 0 1 .975-.964.97.97 0 0 1 .976.964zm17.464-10.532a.975.975 0 0 1-1.229.618l-1.675-.537a.961.961 0 0 1-.626-1.215.978.978 0 0 1 1.229-.619l1.675.538a.962.962 0 0 1 .626 1.215z"/></defs><g><g opacity=".8" transform="translate(-527 -3705)"><use xlink:href="#57tea"/></g></g></svg>