<svg xmlns="http://www.w3.org/2000/svg" xmlns:xlink="http://www.w3.org/1999/xlink" width="10" height="6" viewBox="0 0 10 6"><defs><path id="bt4la" d="M813 1049c0 .875-2.966 3-5 3-2.054 0-5.023-2.06-5-3 0-1.053 3.062-3 5-3 1.937 0 5 2.031 5 3zm-3.006.126c.075-1.213-.805-2.202-1.994-2.126-.982 0-1.943.998-1.993 1.891-.062 1.084.804 2.185 1.993 2.109.98-.065 1.93-.877 1.994-1.874zm-1.922.86a.993.993 0 0 1-1.056-1.057.993.993 0 1 1 1.984.128.999.999 0 0 1-.928.93z"/></defs><g><g transform="translate(-803 -1046)"><use fill="#fff" xlink:href="#bt4la"/></g></g></svg>