<svg xmlns="http://www.w3.org/2000/svg" xmlns:xlink="http://www.w3.org/1999/xlink" width="6" height="12" viewBox="0 0 6 12"><defs><path id="c7r3a" d="M117.774 981.002l-1.44-.002c-1.616 0-2.334 1.206-2.334 3v2h-2c-.126 0 0-.152 0 0v2c0 .135.875 0 1 0h1v5c0 .135-.226 0-.1 0h1.887c.125 0 .227-.11.227-.245L116 988h1c.125 0 1 .135 1 0v-2c0-.073.043.052 0 0-.043.417.06 0 0 0h-2l.014-1.84c0-.554.318-1.16.986-1.16h1c.125 0 0 .214 0 .079v-1.832c0-.135-.101-.244-.226-.245z"/></defs><g><g transform="translate(-112 -981)"><use fill="#fff" xlink:href="#c7r3a"/></g></g></svg>