<svg xmlns="http://www.w3.org/2000/svg" xmlns:xlink="http://www.w3.org/1999/xlink" width="10" height="9" viewBox="0 0 10 9"><defs><path id="kou7a" d="M526.034 3273.718c-.015-.113-.347-2.817 1.138-4.677.913-1.143 2.32-1.77 4.139-1.832l.01-1.88c0-.128.069-.246.178-.302a.297.297 0 0 1 .332.043l4.056 3.564a.344.344 0 0 1 .115.26c0 .1-.041.195-.114.259l-4.056 3.597a.295.295 0 0 1-.332.044.336.336 0 0 1-.18-.302l-.01-1.923c-4.382-.003-4.693 3.003-4.704 3.127-.013.169-.113.3-.272.306h-.01c-.154 0-.267-.12-.29-.284zm5.82-3.726c.059.063.092.148.092.237v1.553l3.25-2.887-3.25-2.861v1.505c0 .185-.14.335-.313.335-1.78 0-3.14.552-3.984 1.6-.634.788-.926 1.753-1.026 2.554.683-1 1.88-2.131 5.01-2.134.083 0 .162.036.22.098z"/></defs><g><g transform="translate(-526 -3265)"><use fill="#ee2e54" xlink:href="#kou7a"/></g></g></svg>