<svg xmlns="http://www.w3.org/2000/svg" xmlns:xlink="http://www.w3.org/1999/xlink" width="12" height="12" viewBox="0 0 12 12"><defs><path id="pt29a" d="M160 985.75v4.5a3.75 3.75 0 0 1-3.75 3.75h-4.5a3.75 3.75 0 0 1-3.75-3.75v-4.5a3.75 3.75 0 0 1 3.75-3.75h4.5a3.75 3.75 0 0 1 3.75 3.75zm-1.125 0a2.628 2.628 0 0 0-2.625-2.625h-4.5a2.628 2.628 0 0 0-2.625 2.625v4.5a2.628 2.628 0 0 0 2.625 2.625h4.5a2.628 2.628 0 0 0 2.625-2.625zM157 988a3 3 0 1 1-6 0 3 3 0 0 1 6 0zm-1.125 0a1.877 1.877 0 0 0-1.875-1.875c-1.034 0-1.875.84-1.875 1.875 0 1.033.841 1.875 1.875 1.875a1.878 1.878 0 0 0 1.875-1.875zm1.35-3.625a.4.4 0 1 1 0 .8.4.4 0 0 1 0-.8z"/></defs><g><g transform="translate(-148 -982)"><use fill="#fff" xlink:href="#pt29a"/></g></g></svg>