<svg xmlns="http://www.w3.org/2000/svg" xmlns:xlink="http://www.w3.org/1999/xlink" width="14" height="14" viewBox="0 0 14 14"><defs><path id="ga5ia" d="M1366.317 3146c-3.97 0-4.001-.166-4.493-.537-.26-.197-.753-.333-2.55-.45a.467.467 0 0 1-.338-.16c-.038-.047-.936-1.359-.936-3.461 0-2.072.643-3.016.67-3.06a.437.437 0 0 1 .37-.205c1.476 0 3.522-1.888 4.898-5.183.238-.57.287-.945 1.16-.945.498 0 1.055.357 1.33.814.564.934.278 2.941.012 4.014a565.2 565.2 0 0 1 3.308-.02c1.08 0 1.794.645 1.816 1.588.007.312-.034.709-.124.914.238.238.545.596.558 1.057.017.595-.373 1.049-.62 1.309.056.173.17.403.16.677-.028.675-.548 1.11-.872 1.337a2.54 2.54 0 0 1-.011.803c-.234 1.075-1.808 1.507-4.338 1.507zm-6.811-1.876c1.565.131 2.402.306 2.844.64.342.257.289.36 3.967.36 1.122 0 3.316-.047 3.484-.82.067-.308-.257-.611-.259-.613a.444.444 0 0 1 .227-.572c.003-.001.875-.315.895-.803.013-.312-.2-.5-.206-.508a.447.447 0 0 1 .113-.604c.002-.002.567-.345.553-.813-.01-.371-.5-.633-.514-.641a.445.445 0 0 1-.134-.65s.222-.353.214-.685c-.016-.71-.778-.732-.942-.732-1.102 0-3.932.01-3.932.01a.432.432 0 0 1-.366-.193.462.462 0 0 1-.04-.413c.426-1.232.665-3.164.269-3.824-.117-.195-.143-.388-.58-.388-.06 0-.205.047-.355.406-1.46 3.5-3.64 5.524-5.427 5.706-.154.352-.443 1.08-.443 2.405 0 1.35.426 2.395.632 2.732z"/></defs><g><g transform="translate(-1358 -3132)"><use fill="#ee2e54" xlink:href="#ga5ia"/></g></g></svg>