<svg xmlns="http://www.w3.org/2000/svg" xmlns:xlink="http://www.w3.org/1999/xlink" width="29" height="29" viewBox="0 0 29 29"><defs><path id="nr6ea" d="M783.504 719h-2.227c0-6.698-5.395-12.146-12.025-12.146-6.63 0-12.025 5.448-12.025 12.145H755c0-3.845 1.482-7.46 4.174-10.178a14.168 14.168 0 0 1 5.416-3.431 8.343 8.343 0 0 1-3.578-6.859c0-4.588 3.697-8.32 8.24-8.32s8.24 3.732 8.24 8.32a8.343 8.343 0 0 1-3.578 6.859 14.168 14.168 0 0 1 5.415 3.43 14.373 14.373 0 0 1 4.175 10.18zm-8.24-20.469c0-3.347-2.697-6.072-6.012-6.072-3.316 0-6.013 2.725-6.013 6.072 0 3.35 2.697 6.073 6.013 6.073 3.315 0 6.012-2.723 6.012-6.073z"/></defs><g><g transform="translate(-755 -690)"><use fill="#ffba00" xlink:href="#nr6ea"/></g></g></svg>