<svg xmlns="http://www.w3.org/2000/svg" xmlns:xlink="http://www.w3.org/1999/xlink" width="10" height="13" viewBox="0 0 10 13"><defs><path id="7evea" d="M37.005 813.011c-1.28 0-2.323-.998-2.323-2.225 0-1.226 1.042-2.224 2.323-2.224 1.28 0 2.323.998 2.323 2.224 0 1.227-1.042 2.225-2.323 2.225zm0-4.057c-1.055 0-1.914.822-1.914 1.833 0 1.01.859 1.833 1.914 1.833s1.914-.822 1.914-1.833c0-1.011-.859-1.833-1.914-1.833zm0 10.048a.207.207 0 0 1-.157-.07c-.198-.226-4.844-5.567-4.844-8.145 0-2.641 2.244-4.79 5-4.79 2.758 0 5.002 2.149 5.002 4.79 0 2.578-4.646 7.919-4.844 8.145a.21.21 0 0 1-.157.07zm0-12.613c-2.532 0-4.592 1.973-4.592 4.398 0 2.182 3.77 6.742 4.592 7.71.822-.968 4.592-5.529 4.592-7.71 0-2.425-2.06-4.398-4.592-4.398z"/></defs><g><g transform="translate(-32 -806)"><use fill="#fff" xlink:href="#7evea"/></g></g></svg>