<?xml version="1.0" encoding="UTF-8" standalone="no"?>
<!-- Generator: Adobe Illustrator 19.0.0, SVG Export Plug-In . SVG Version: 6.00 Build 0)  -->

<svg
   xmlns:dc="http://purl.org/dc/elements/1.1/"
   xmlns:cc="http://creativecommons.org/ns#"
   xmlns:rdf="http://www.w3.org/1999/02/22-rdf-syntax-ns#"
   xmlns:svg="http://www.w3.org/2000/svg"
   xmlns="http://www.w3.org/2000/svg"
   xmlns:sodipodi="http://sodipodi.sourceforge.net/DTD/sodipodi-0.dtd"
   xmlns:inkscape="http://www.inkscape.org/namespaces/inkscape"
   version="1.1"
   id="Capa_1"
   x="0px"
   y="0px"
   viewBox="0 0 60 60"
   style="enable-background:new 0 0 60 60;"
   xml:space="preserve"
   sodipodi:docname="play-button — копия.svg"
   inkscape:version="0.92.3 (2405546, 2018-03-11)"><metadata
   id="metadata4602"><rdf:RDF><cc:Work
       rdf:about=""><dc:format>image/svg+xml</dc:format><dc:type
         rdf:resource="http://purl.org/dc/dcmitype/StillImage" /></cc:Work></rdf:RDF></metadata><defs
   id="defs4600" /><sodipodi:namedview
   pagecolor="#ffffff"
   bordercolor="#666666"
   borderopacity="1"
   objecttolerance="10"
   gridtolerance="10"
   guidetolerance="10"
   inkscape:pageopacity="0"
   inkscape:pageshadow="2"
   inkscape:window-width="1920"
   inkscape:window-height="1017"
   id="namedview4598"
   showgrid="false"
   inkscape:zoom="14.133333"
   inkscape:cx="30"
   inkscape:cy="30"
   inkscape:window-x="-8"
   inkscape:window-y="-8"
   inkscape:window-maximized="1"
   inkscape:current-layer="Capa_1" />
<g
   id="g4565"
   transform="rotate(-180,30,30)">
	<path
   d="m 45.563,29.174 -22,-15 C 23.256,13.966 22.86,13.943 22.532,14.116 22.205,14.289 22,14.629 22,15 v 30 c 0,0.371 0.205,0.711 0.533,0.884 C 22.679,45.962 22.84,46 23,46 c 0.197,0 0.394,-0.059 0.563,-0.174 l 22,-15 C 45.836,30.64 46,30.331 46,30 46,29.669 45.836,29.36 45.563,29.174 Z M 24,43.107 V 16.893 L 43.225,30 Z"
   id="path4561"
   inkscape:connector-curvature="0" />
	<path
   d="M 30,0 C 13.458,0 0,13.458 0,30 0,46.542 13.458,60 30,60 46.542,60 60,46.542 60,30 60,13.458 46.542,0 30,0 Z m 0,58 C 14.561,58 2,45.439 2,30 2,14.561 14.561,2 30,2 45.439,2 58,14.561 58,30 58,45.439 45.439,58 30,58 Z"
   id="path4563"
   inkscape:connector-curvature="0" />
</g>
<g
   id="g4567">
</g>
<g
   id="g4569">
</g>
<g
   id="g4571">
</g>
<g
   id="g4573">
</g>
<g
   id="g4575">
</g>
<g
   id="g4577">
</g>
<g
   id="g4579">
</g>
<g
   id="g4581">
</g>
<g
   id="g4583">
</g>
<g
   id="g4585">
</g>
<g
   id="g4587">
</g>
<g
   id="g4589">
</g>
<g
   id="g4591">
</g>
<g
   id="g4593">
</g>
<g
   id="g4595">
</g>
</svg>