<svg xmlns="http://www.w3.org/2000/svg" xmlns:xlink="http://www.w3.org/1999/xlink" width="12" height="12" viewBox="0 0 12 12"><defs><path id="x2dfa" d="M33.648 775.004a.179.179 0 0 1-.086-.023.186.186 0 0 1-.096-.163v-2.64C31.875 771.337 31 769.86 31 768.01c0-2.859 2.58-5.014 6-5.014s6 2.155 6 5.014c0 2.859-2.58 5.014-6 5.014-.112 0-.223-.006-.333-.012h-.007l-2.912 1.962a.179.179 0 0 1-.1.03zM37 763.365c-3.213 0-5.636 1.997-5.636 4.644 0 1.231.41 2.906 2.364 3.89a.186.186 0 0 1 .101.166v2.409l2.68-1.806a.163.163 0 0 1 .11-.03l.067.003c.104.006.208.012.314.012 3.213 0 5.636-1.997 5.636-4.644 0-2.647-2.423-4.644-5.636-4.644z"/></defs><g><g transform="translate(-31 -763)"><use fill="#fff" xlink:href="#x2dfa"/></g></g></svg>