<?xml version="1.0" encoding="utf-8"?><svg xmlns="http://www.w3.org/2000/svg" xmlns:xlink="http://www.w3.org/1999/xlink"><symbol viewBox="0 0 16 13" id="comment" xmlns="http://www.w3.org/2000/svg"><defs><path id="aa" d="M1059.286 524.455c-.512 0-1.036-.05-1.572-.148a7.39 7.39 0 0 1-2.482 1.182c-.214.056-.47.105-.768.148h-.026a.273.273 0 0 1-.184-.074.31.31 0 0 1-.102-.193.196.196 0 0 1-.01-.06c0-.022.002-.042.005-.06a.201.201 0 0 1 .018-.056l.023-.046.03-.05c.022-.035.034-.05.036-.047.003.003.017-.012.04-.046.025-.034.036-.048.036-.041.03-.037.099-.114.206-.231.107-.117.184-.208.232-.272l.2-.268c.087-.114.162-.232.224-.355.063-.124.124-.259.183-.407-.738-.443-1.318-.988-1.74-1.634a3.714 3.714 0 0 1-.635-2.068c0-.856.28-1.647.84-2.373.559-.726 1.322-1.3 2.29-1.722.967-.422 2.019-.633 3.156-.633s2.189.211 3.156.633c.967.422 1.73.996 2.29 1.722s.84 1.517.84 2.373c0 .855-.28 1.646-.84 2.372-.56.727-1.323 1.3-2.29 1.722-.967.422-2.02.632-3.156.632zm-1.366-1.31c.464.086.92.13 1.366.13.91 0 1.762-.16 2.553-.481.792-.32 1.421-.754 1.889-1.302.467-.548.7-1.136.7-1.763 0-.628-.233-1.216-.7-1.764-.468-.548-1.097-.982-1.889-1.302a6.753 6.753 0 0 0-2.553-.48c-.911 0-1.762.16-2.554.48-.791.32-1.42.754-1.888 1.302-.467.548-.701 1.136-.701 1.764 0 .504.158.99.473 1.459.316.467.76.874 1.33 1.218l.867.517-.313.776c.203-.123.387-.244.554-.36l.393-.287zm8.705 2.65c.06.148.12.283.183.406.063.123.137.242.224.355l.2.268c.048.065.125.156.232.273a6.593 6.593 0 0 1 .282.318.434.434 0 0 1 .067.097l.022.046.018.055c.011.037.013.057.004.06-.009.003-.012.023-.009.06a.345.345 0 0 1-.116.203.263.263 0 0 1-.196.065 7.188 7.188 0 0 1-.768-.148 7.39 7.39 0 0 1-2.482-1.182 8.693 8.693 0 0 1-1.572.148c-1.613 0-3.018-.406-4.214-1.219.345.025.607.037.786.037.958 0 1.878-.139 2.758-.415a7.811 7.811 0 0 0 2.358-1.191c.744-.567 1.315-1.22 1.714-1.957a4.902 4.902 0 0 0 .393-3.749c.768.437 1.375.985 1.821 1.643.447.659.67 1.367.67 2.124 0 .738-.211 1.43-.634 2.073-.422.643-1.003 1.186-1.74 1.63z"/></defs><use xlink:href="#aa" transform="translate(-1053 -515)"/></symbol><symbol viewBox="0 0 30 35" id="edge1" xmlns="http://www.w3.org/2000/svg"><defs><path id="ba" d="M559.967 3546.4c-.643 3.95-3.132 7.441-6.664 9.356-.323.775-.688 1.51-1.095 2.194-1.281 2.153-3.46 4.307-5.208 5.05-.2 1.834 1.607 2.921 3.447 3.335.004 0 .007.002.01.003.358.084.543.279.543.662v4h2c1.341 0 2.018.931 2.018 2.271v1.919a.81.81 0 0 1-.81.81H535.87a.81.81 0 0 1-.81-.81v-1.919c0-1.34.599-2.271 1.94-2.271h2l-.004-3.875a.81.81 0 0 1 .622-.787c.004 0 .007-.002.01-.003 1.828-.411 3.552-1.514 3.372-3.336-1.78-.73-3.907-2.863-5.207-5.05a17.29 17.29 0 0 1-1.096-2.193c-3.532-1.914-6.021-5.405-6.665-9.356a2.5 2.5 0 0 1 .568-2.025c.483-.568.654-.376 1.4-.376h3l-.018-1.283c0-.946.77-1.717 1.718-1.717h16.6c.947 0 1.718.77 1.718 1.717l-.018 1.283h2c.746 0 1.917-.192 2.4.376a2.5 2.5 0 0 1 .567 2.025zM536 3554c-.566-2.07-1.018-5.071-1.018-7.408L535 3545s-4-.4-4 1c.459 2.817 2.776 6.245 5 8zm1 18c-.447 0-1 .553-1 1v2h18v-2c0-.447-.553-1-1-1zm3-4v3h10v-3zm9-1c-1.643-.572-2.982-2.685-3-4-.313.046-.681 0-1 0-.293 0-.712.039-1 0-.013.978-.168 1.757-.708 2.6-.164.256-2.092 1.179-2.292 1.4zm5-25h-18v5c0 3.99 1.334 8.2 3 11 1.587 2.668 3.838 4 6 4s4.413-1.332 6-4c1.666-2.8 3-8.01 3-12zm-18 0c0-.054-.428-.626 0 0zm18 0c.053 0 .75-.46 0 0zm1 3l.018 1.592c0 2.337-.298 4.6-1.041 7.373 2.203-1.675 4.56-5.133 5.023-7.965 0-1.4-4-1-4-1zm-5.253 5.165l-1.782 1.634.42 2.306a.747.747 0 0 1-.324.75.853.853 0 0 1-.859.059l-2.202-1.09-2.202 1.09a.859.859 0 0 1-.86-.059.746.746 0 0 1-.324-.75l.42-2.306-1.781-1.634a.736.736 0 0 1-.207-.786.804.804 0 0 1 .659-.523l2.462-.337 1.101-2.098a.822.822 0 0 1 .732-.428c.31 0 .594.166.732.428l1.1 2.099 2.463.336a.805.805 0 0 1 .658.522.736.736 0 0 1-.206.787zM549 3550l-2.826-.02a.814.814 0 0 1-.615-.42L545 3547l-.558 2.56a.814.814 0 0 1-.615.42L541 3550l2.48.98a.74.74 0 0 1 .235.68l-.728 2.155 1.633-1.536a.86.86 0 0 1 .76 0l1.632 1.536-.727-2.155a.74.74 0 0 1 .234-.68z"/></defs><use xlink:href="#ba" transform="translate(-530 -3541)"/></symbol><symbol viewBox="0 0 32 26" id="edge2" xmlns="http://www.w3.org/2000/svg"><defs><path id="ca" d="M1456.997 3570.011a.995.995 0 0 1 1.003.988.996.996 0 0 1-1.003.988.996.996 0 0 1-1.003-.988c0-.546.45-.988 1.003-.988zm23.26-3.101a2.532 2.532 0 0 1-.649 3.514c.28.408.445.901.445 1.432a2.538 2.538 0 0 1-2.536 2.534h-7.354a17.11 17.11 0 0 1-7.398-1.693l-.97-.468-.795-.23v1c0 .858-.879 2-1.736 2h-7.709a1.556 1.556 0 0 1-1.555-1.553v-14.958c0-.821.71-1.49 1.582-1.49h7.843c.872 0 1.582.669 1.582 1.49l-.007.512h2l2.7-2.468a9.229 9.229 0 0 0 2.808-4.073s.606-1.786.624-1.83c.4-.99 1.35-1.63 2.418-1.63 1.437 0 2.45 1.564 2.45 3v1c-.003 1.515-.165 3.449-.782 4.832l-.423.947h6.668a2.531 2.531 0 1 1 1.443 4.617 2.533 2.533 0 0 1-.649 3.515zM1460 3574v-16h-9v16h9zm21.007-12.904c0-.558-.45-1.096-1.007-1.096h-8a.985.985 0 0 1-.857-.495.8.8 0 0 1 .034-.56l.932-2.095a9.484 9.484 0 0 0 .824-3.859l.004-1.916c0-.598-.485-1.085-1.082-1.085-1.14 0-1.676.632-1.855 1.01-1.75 7.061-7 9-7 9h-2v11l1.029.096 1.484.309a15.955 15.955 0 0 0 6.915 1.587h7.567a1.012 1.012 0 0 0 0-2.024h-.47a.801.801 0 0 1 0-1.604h1.138a1.012 1.012 0 0 0 0-2.024h-.471a.801.801 0 0 1 0-1.604h1.138a1.012 1.012 0 0 0 0-2.024h-.47a.801.801 0 0 1 0-1.604h1.138c.556 0 1.01-.454 1.01-1.012z"/></defs><use xlink:href="#ca" opacity=".8" transform="translate(-1450 -3549)"/></symbol><symbol viewBox="0 0 37 36" id="edge3" xmlns="http://www.w3.org/2000/svg"><defs><path id="da" d="M555.245 3724.765a.478.478 0 0 0-.14.427l1.382 7.963a2.383 2.383 0 0 1-.97 2.357 2.447 2.447 0 0 1-2.568.184l-7.236-3.76a.494.494 0 0 0-.454 0l-7.236 3.76c-.827.43-1.811.36-2.568-.184a2.382 2.382 0 0 1-.97-2.357l1.382-7.963a.478.478 0 0 0-.14-.427l-5.854-5.64a2.375 2.375 0 0 1-.617-2.47 2.416 2.416 0 0 1 1.968-1.64l8.09-1.163a.488.488 0 0 0 .368-.263l3.618-7.246a2.426 2.426 0 0 1 2.186-1.343c.935 0 1.773.514 2.187 1.343l3.618 7.246a.488.488 0 0 0 .367.263l8.09 1.162c.926.133 1.68.761 1.969 1.64a2.376 2.376 0 0 1-.617 2.47zm-.698-1.181l6.306-6.03a.496.496 0 0 0 .132-.528.509.509 0 0 0-.424-.351L552 3715c-.856-.122-1.747-.216-2.13-.977l-3.897-7.746a.515.515 0 0 0-.47-.288.514.514 0 0 0-.472.288l-3.897 7.746c-.383.76-1.279.855-2.134.977l-8.557 1.675a.508.508 0 0 0-.424.35.496.496 0 0 0 .133.53l6.305 6.029a2.54 2.54 0 0 1 .755 2.28l-1.488 8.515a.5.5 0 0 0 .209.504.52.52 0 0 0 .553.038l7.794-4.019a2.662 2.662 0 0 1 2.444 0l7.794 4.02a.52.52 0 0 0 .553-.04.498.498 0 0 0 .21-.503l-1.49-8.515a2.545 2.545 0 0 1 .756-2.28zm2.55-15.895l-1.036 1.408a.977.977 0 0 1-.79.398.97.97 0 0 1-.572-.185.957.957 0 0 1-.216-1.346l1.035-1.408a.983.983 0 0 1 1.362-.214.957.957 0 0 1 .216 1.347zm-20.828 1.616a.978.978 0 0 1-.572.184.978.978 0 0 1-.79-.397l-1.036-1.409a.956.956 0 0 1 .216-1.346.983.983 0 0 1 1.363.213l1.035 1.408a.957.957 0 0 1-.216 1.347zm-6.318 18.537l-1.675.538a.977.977 0 0 1-1.23-.619.962.962 0 0 1 .627-1.215l1.675-.537a.978.978 0 0 1 1.23.619.961.961 0 0 1-.627 1.214zm16.51 10.453v1.74a.97.97 0 0 1-.975.965.97.97 0 0 1-.975-.964v-1.741a.97.97 0 0 1 .975-.964.97.97 0 0 1 .976.964zm17.464-10.532a.975.975 0 0 1-1.229.618l-1.675-.537a.961.961 0 0 1-.626-1.215.978.978 0 0 1 1.229-.619l1.675.538a.962.962 0 0 1 .626 1.215z"/></defs><use xlink:href="#da" opacity=".8" transform="translate(-527 -3705)"/></symbol><symbol viewBox="0 0 31 29" id="edge4" xmlns="http://www.w3.org/2000/svg"><defs><path id="ea" d="M1481 3711.806v1.262c0 .75-1.234.932-2 .932v16c0 .75-.234 1-1 1h-12v2l5 4c.31.222 1.227.697 1 1h-1.07a.7.7 0 0 1-.411-.132l-4.52-3.868v3c0 .375-.115 1-.499 1s-.5-.625-.5-1v-3l-4.52 3.868c-.308.222-.316.131-1.48.131-.227-.302.69-.777 1-1l5-4v-2l-12.034.078c-.765 0-.966-.328-.966-1.078v-16c-.766 0-2-.18-2-.93v-1.263c0-.75.234-.806 1-.806h14v-1c0-.51 1-.51 1 0v1h14c.766 0 1 .056 1 .806zm-3 18.193v-16h-25v16zm2-17v-1h-29v1zm-9.002 9.305c0 3.133-2.557 5.682-5.7 5.682-3.145 0-5.298-2.853-5.298-5.987 0-.324.674 0 1 0h4v-5c0-.324.674 0 1 0 3.144 0 4.998 2.172 4.998 5.305zm-.928.087c-.07-2.677-1.854-4.103-4.07-4.392l-.113 4.305c0 .325-.561.696-.887.696h-4c.29 2.208 2.125 3.963 4.418 3.982a4.596 4.596 0 0 0 4.652-4.591zm-6.07-5.392v3c0 .325-.674 1-1 1h-3c-.326 0-1.014-.36-1.014-.684 0-2.371 1.936-4.3 4.315-4.3.326 0 .699.66.699.984zm-1 0c-1.257.24-2.76 1.747-3 3h3z"/></defs><use xlink:href="#ea" opacity=".78" transform="translate(-1450 -3709)"/></symbol><symbol viewBox="0 0 10 6" id="eye" xmlns="http://www.w3.org/2000/svg"><defs><path id="fa" d="M813 1049c0 .875-2.966 3-5 3-2.054 0-5.023-2.06-5-3 0-1.053 3.062-3 5-3 1.937 0 5 2.031 5 3zm-3.006.126c.075-1.213-.805-2.202-1.994-2.126-.982 0-1.943.998-1.993 1.891-.062 1.084.804 2.185 1.993 2.109.98-.065 1.93-.877 1.994-1.874zm-1.922.86a.993.993 0 0 1-1.056-1.057.993.993 0 1 1 1.984.128.999.999 0 0 1-.928.93z"/></defs><use xlink:href="#fa" transform="translate(-803 -1046)"/></symbol><symbol viewBox="0 0 6 12" id="fb" xmlns="http://www.w3.org/2000/svg"><defs><path id="ga" d="M117.774 981.002l-1.44-.002c-1.616 0-2.334 1.206-2.334 3v2h-2c-.126 0 0-.152 0 0v2c0 .135.875 0 1 0h1v5c0 .135-.226 0-.1 0h1.887c.125 0 .227-.11.227-.245L116 988h1c.125 0 1 .135 1 0v-2c0-.073.043.052 0 0-.043.417.06 0 0 0h-2l.014-1.84c0-.554.318-1.16.986-1.16h1c.125 0 0 .214 0 .079v-1.832c0-.135-.101-.244-.226-.245z"/></defs><use xlink:href="#ga" transform="translate(-112 -981)"/></symbol><symbol viewBox="0 0 512 512" id="fb2" xmlns="http://www.w3.org/2000/svg"><path d="M448 0H64C28.704 0 0 28.704 0 64v384c0 35.296 28.704 64 64 64h192V336h-64v-80h64v-64c0-53.024 42.976-96 96-96h64v80h-32c-17.664 0-32-1.664-32 16v64h80l-32 80h-48v176h96c35.296 0 64-28.704 64-64V64c0-35.296-28.704-64-64-64z"/></symbol><symbol viewBox="0 0 10 9" id="feed" xmlns="http://www.w3.org/2000/svg"><defs><path id="ia" d="M526.034 3273.718c-.015-.113-.347-2.817 1.138-4.677.913-1.143 2.32-1.77 4.139-1.832l.01-1.88c0-.128.069-.246.178-.302a.297.297 0 0 1 .332.043l4.056 3.564a.344.344 0 0 1 .115.26c0 .1-.041.195-.114.259l-4.056 3.597a.295.295 0 0 1-.332.044.336.336 0 0 1-.18-.302l-.01-1.923c-4.382-.003-4.693 3.003-4.704 3.127-.013.169-.113.3-.272.306h-.01c-.154 0-.267-.12-.29-.284zm5.82-3.726a.347.347 0 0 1 .092.237v1.553l3.25-2.887-3.25-2.861v1.505c0 .185-.14.335-.313.335-1.78 0-3.14.552-3.984 1.6-.634.788-.926 1.753-1.026 2.554.683-1 1.88-2.131 5.01-2.134.083 0 .162.036.22.098z"/></defs><use xlink:href="#ia" transform="translate(-526 -3265)"/></symbol><symbol viewBox="0 0 12 12" id="insta" xmlns="http://www.w3.org/2000/svg"><defs><path id="ja" d="M160 985.75v4.5a3.75 3.75 0 0 1-3.75 3.75h-4.5a3.75 3.75 0 0 1-3.75-3.75v-4.5a3.75 3.75 0 0 1 3.75-3.75h4.5a3.75 3.75 0 0 1 3.75 3.75zm-1.125 0a2.628 2.628 0 0 0-2.625-2.625h-4.5a2.628 2.628 0 0 0-2.625 2.625v4.5a2.628 2.628 0 0 0 2.625 2.625h4.5a2.628 2.628 0 0 0 2.625-2.625zM157 988a3 3 0 1 1-6 0 3 3 0 0 1 6 0zm-1.125 0a1.877 1.877 0 0 0-1.875-1.875c-1.034 0-1.875.84-1.875 1.875 0 1.033.841 1.875 1.875 1.875a1.878 1.878 0 0 0 1.875-1.875zm1.35-3.625a.4.4 0 1 1 0 .8.4.4 0 0 1 0-.8z"/></defs><use xlink:href="#ja" transform="translate(-148 -982)"/></symbol><symbol viewBox="0 0 169.063 169.063" id="insta2" xmlns="http://www.w3.org/2000/svg"><path d="M122.406 0H46.654C20.929 0 0 20.93 0 46.655v75.752c0 25.726 20.929 46.655 46.654 46.655h75.752c25.727 0 46.656-20.93 46.656-46.655V46.655C169.063 20.93 148.133 0 122.406 0zm31.657 122.407c0 17.455-14.201 31.655-31.656 31.655H46.654C29.2 154.063 15 139.862 15 122.407V46.655C15 29.201 29.2 15 46.654 15h75.752c17.455 0 31.656 14.201 31.656 31.655v75.752z"/><path d="M84.531 40.97c-24.021 0-43.563 19.542-43.563 43.563 0 24.02 19.542 43.561 43.563 43.561s43.563-19.541 43.563-43.561c0-24.021-19.542-43.563-43.563-43.563zm0 72.123c-15.749 0-28.563-12.812-28.563-28.561 0-15.75 12.813-28.563 28.563-28.563s28.563 12.813 28.563 28.563c0 15.749-12.814 28.561-28.563 28.561zm45.39-84.842c-2.89 0-5.729 1.17-7.77 3.22a11.053 11.053 0 0 0-3.23 7.78c0 2.891 1.18 5.73 3.23 7.78 2.04 2.04 4.88 3.22 7.77 3.22 2.9 0 5.73-1.18 7.78-3.22 2.05-2.05 3.22-4.89 3.22-7.78 0-2.9-1.17-5.74-3.22-7.78-2.04-2.05-4.88-3.22-7.78-3.22z"/></symbol><symbol viewBox="0 0 14 14" id="like" xmlns="http://www.w3.org/2000/svg"><defs><path id="la" d="M1366.317 3146c-3.97 0-4.001-.166-4.493-.537-.26-.197-.753-.333-2.55-.45a.467.467 0 0 1-.338-.16c-.038-.047-.936-1.359-.936-3.461 0-2.072.643-3.016.67-3.06a.437.437 0 0 1 .37-.205c1.476 0 3.522-1.888 4.898-5.183.238-.57.287-.945 1.16-.945.498 0 1.055.357 1.33.814.564.934.278 2.941.012 4.014a565.2 565.2 0 0 1 3.308-.02c1.08 0 1.794.645 1.816 1.588.007.312-.034.709-.124.914.238.238.545.596.558 1.057.017.595-.373 1.049-.62 1.309.056.173.17.403.16.677-.028.675-.548 1.11-.872 1.337a2.54 2.54 0 0 1-.011.803c-.234 1.075-1.808 1.507-4.338 1.507zm-6.811-1.876c1.565.131 2.402.306 2.844.64.342.257.289.36 3.967.36 1.122 0 3.316-.047 3.484-.82.067-.308-.257-.611-.259-.613a.444.444 0 0 1 .227-.572c.003-.001.875-.315.895-.803.013-.312-.2-.5-.206-.508a.447.447 0 0 1 .113-.604c.002-.002.567-.345.553-.813-.01-.371-.5-.633-.514-.641a.445.445 0 0 1-.134-.65s.222-.353.214-.685c-.016-.71-.778-.732-.942-.732-1.102 0-3.932.01-3.932.01a.432.432 0 0 1-.366-.193.462.462 0 0 1-.04-.413c.426-1.232.665-3.164.269-3.824-.117-.195-.143-.388-.58-.388-.06 0-.205.047-.355.406-1.46 3.5-3.64 5.524-5.427 5.706-.154.352-.443 1.08-.443 2.405 0 1.35.426 2.395.632 2.732z"/></defs><use xlink:href="#la" transform="translate(-1358 -3132)"/></symbol><symbol viewBox="0 0 29 29" id="man" xmlns="http://www.w3.org/2000/svg"><defs><path id="ma" d="M783.504 719h-2.227c0-6.698-5.395-12.146-12.025-12.146-6.63 0-12.025 5.448-12.025 12.145H755c0-3.845 1.482-7.46 4.174-10.178a14.168 14.168 0 0 1 5.416-3.431 8.343 8.343 0 0 1-3.578-6.859c0-4.588 3.697-8.32 8.24-8.32s8.24 3.732 8.24 8.32a8.343 8.343 0 0 1-3.578 6.859 14.168 14.168 0 0 1 5.415 3.43 14.373 14.373 0 0 1 4.175 10.18zm-8.24-20.469c0-3.347-2.697-6.072-6.012-6.072-3.316 0-6.013 2.725-6.013 6.072 0 3.35 2.697 6.073 6.013 6.073 3.315 0 6.012-2.723 6.012-6.073z"/></defs><use xlink:href="#ma" transform="translate(-755 -690)"/></symbol><symbol viewBox="0 0 10 13" id="pin" xmlns="http://www.w3.org/2000/svg"><defs><path id="na" d="M37.005 813.011c-1.28 0-2.323-.998-2.323-2.225 0-1.226 1.042-2.224 2.323-2.224 1.28 0 2.323.998 2.323 2.224 0 1.227-1.042 2.225-2.323 2.225zm0-4.057c-1.055 0-1.914.822-1.914 1.833 0 1.01.859 1.833 1.914 1.833s1.914-.822 1.914-1.833c0-1.011-.859-1.833-1.914-1.833zm0 10.048a.207.207 0 0 1-.157-.07c-.198-.226-4.844-5.567-4.844-8.145 0-2.641 2.244-4.79 5-4.79 2.758 0 5.002 2.149 5.002 4.79 0 2.578-4.646 7.919-4.844 8.145a.21.21 0 0 1-.157.07zm0-12.613c-2.532 0-4.592 1.973-4.592 4.398 0 2.182 3.77 6.742 4.592 7.71.822-.968 4.592-5.529 4.592-7.71 0-2.425-2.06-4.398-4.592-4.398z"/></defs><use xlink:href="#na" transform="translate(-32 -806)"/></symbol><symbol viewBox="0 0 12 12" id="question" xmlns="http://www.w3.org/2000/svg"><defs><path id="oa" d="M33.648 775.004a.179.179 0 0 1-.086-.023.186.186 0 0 1-.096-.163v-2.64C31.875 771.337 31 769.86 31 768.01c0-2.859 2.58-5.014 6-5.014s6 2.155 6 5.014c0 2.859-2.58 5.014-6 5.014a6.1 6.1 0 0 1-.333-.012h-.007l-2.912 1.962a.179.179 0 0 1-.1.03zM37 763.365c-3.213 0-5.636 1.997-5.636 4.644 0 1.231.41 2.906 2.364 3.89a.186.186 0 0 1 .101.166v2.409l2.68-1.806a.163.163 0 0 1 .11-.03l.067.003c.104.006.208.012.314.012 3.213 0 5.636-1.997 5.636-4.644 0-2.647-2.423-4.644-5.636-4.644z"/></defs><use xlink:href="#oa" transform="translate(-31 -763)"/></symbol><symbol viewBox="0 0 62 85" id="recImg" xmlns="http://www.w3.org/2000/svg"><defs><path id="pa" d="M804 4465h27.519l29.48 28.77V4545a5 5 0 0 1-4.999 5h-52a5 5 0 0 1-5-5v-75a5 5 0 0 1 5-5z"/><path id="pb" d="M861 4494h-30v-29"/><clipPath id="pc"><use xlink:href="#pa"/></clipPath><clipPath id="pd"><use xlink:href="#pb"/></clipPath></defs><use fill-opacity="0" stroke-miterlimit="50" stroke-width="2" clip-path="url(#pc)" xlink:href="#pa" transform="translate(-799 -4465)"/><use fill-opacity="0" stroke-miterlimit="50" stroke-width="2" clip-path="url(#pd)" xlink:href="#pb" transform="translate(-799 -4465)"/></symbol><symbol viewBox="0 0 24 28" id="rev_link" xmlns="http://www.w3.org/2000/svg"><defs><path id="qa" d="M1009.924 1386.09l-23.696 13.68v-27.362z"/><clipPath id="qb"><use xlink:href="#qa"/></clipPath></defs><use fill-opacity="0" stroke-miterlimit="50" stroke-width="2" clip-path="url(#qb)" xlink:href="#qa" opacity=".5" transform="translate(-986 -1372)"/></symbol><symbol viewBox="0 0 192.804 192.804" id="search" xmlns="http://www.w3.org/2000/svg"><path d="M10.607 192.803l62.401-62.402c13.063 10.67 29.263 16.475 46.356 16.475h.002c19.614 0 38.058-7.639 51.927-21.509 13.871-13.87 21.511-32.313 21.51-51.931-.001-19.616-7.64-38.058-21.509-51.928C157.425 7.639 138.982 0 119.365 0 99.749 0 81.307 7.639 67.437 21.509 53.565 35.38 45.927 53.823 45.928 73.44c0 17.094 5.805 33.294 16.475 46.355L0 182.197l10.607 10.606zM60.928 73.44c-.001-15.611 6.078-30.287 17.116-41.324C89.081 21.078 103.756 15 119.365 15c15.61 0 30.285 6.078 41.322 17.115s17.116 25.712 17.116 41.322c0 15.611-6.078 30.286-17.116 41.324-11.037 11.038-25.712 17.116-41.321 17.116-15.61-.001-30.286-6.079-41.323-17.116C67.006 103.724 60.928 89.05 60.928 73.44z"/></symbol><symbol viewBox="0 0 0 0" id="sprite" xmlns="http://www.w3.org/2000/svg"/><symbol viewBox="0 0 11 11" id="tel" xmlns="http://www.w3.org/2000/svg"><defs><path id="ta" d="M35.052 734.473c-.336.336-.669.507-1.011.52-.622.026-1.094-.47-1.51-.908-.068-.072-.134-.142-.2-.207-.456-.455-.455-1.451.002-2.664.502-1.334 1.495-2.785 2.795-4.085 1.301-1.3 2.752-2.294 4.086-2.796 1.212-.457 2.208-.457 2.663-.002.066.066.137.133.209.201.437.416.933.888.908 1.51-.018.428-.283.844-.814 1.27-1.564 1.257-2.121.69-2.768.034l-.115-.116c-.108-.108-.605-.312-2.492 1.575-.616.617-1.066 1.142-1.339 1.561-.171.264-.43.736-.237.93l.118.118c.656.646 1.222 1.204-.035 2.767a3.603 3.603 0 0 1-.26.292zm.339-7.082c-1.264 1.264-2.227 2.668-2.711 3.954-.393 1.04-.427 1.931-.087 2.27.068.068.136.141.207.216.362.38.771.811 1.226.793.311-.013.648-.24.997-.675 1.048-1.303.677-1.668.064-2.272l-.12-.119c-.289-.288-.225-.757.189-1.394.286-.44.753-.986 1.387-1.62 1.567-1.566 2.525-2.067 3.016-1.576l.117.119c.604.614.97.984 2.272-.063.438-.352.663-.686.676-.998.019-.454-.413-.864-.793-1.225a12.36 12.36 0 0 1-.215-.208c-.34-.34-1.231-.306-2.272.087-1.285.484-2.69 1.447-3.953 2.71z"/></defs><use xlink:href="#ta" transform="translate(-32 -724)"/></symbol><symbol viewBox="0 0 18 18" id="tick" xmlns="http://www.w3.org/2000/svg"><defs><path id="ua" d="M565.443 4941.453l7.218 16.776 9.624-11.983-9.354 6.413z"/></defs><use xlink:href="#ua" transform="translate(-565 -4941)"/></symbol><symbol viewBox="0 0 33 33" id="time" xmlns="http://www.w3.org/2000/svg"><defs><path id="va" d="M1091 2085.5c0 9.098-7.402 16.5-16.5 16.5-9.099 0-16.5-7.402-16.5-16.5 0-9.099 7.401-16.5 16.5-16.5 9.098 0 16.5 7.401 16.5 16.5zm-2.011 0c0-7.99-6.5-14.488-14.49-14.488-7.988 0-14.488 6.498-14.488 14.487 0 7.99 6.5 14.489 14.489 14.489 7.989 0 14.489-6.5 14.489-14.488zm-5.99 2.5c0 .75-.281 1-.999 1l-8.702-.011c-.718 0-1.3-.608-1.3-1.359L1072 2077c0-.75.282-1 1-1s1 .25 1 1v10h8c.718 0 1 .25 1 1z"/></defs><use xlink:href="#va" transform="translate(-1058 -2069)"/></symbol><symbol viewBox="0 0 8 8" id="time2" xmlns="http://www.w3.org/2000/svg"><defs><path id="wa" d="M896 1049c0 2.206-1.794 4-4 4s-4-1.794-4-4 1.794-4 4-4 4 1.794 4 4zm-.94 0a3.064 3.064 0 0 0-3.06-3.06 3.064 3.064 0 0 0-3.06 3.06 3.064 3.064 0 0 0 3.06 3.06 3.064 3.064 0 0 0 3.06-3.06zm-2.06 1l-1.622-.015c-.203 0-.367-.14-.367-.315L891 1048c0-.783 1-.783 1 0v1h1c.627 0 .627 1 0 1z"/></defs><use xlink:href="#wa" transform="translate(-888 -1045)"/></symbol><symbol viewBox="0 0 137.333 137.333" id="triangle" xmlns="http://www.w3.org/2000/svg"><path d="M23.468 137.333V0l90.398 68.667-90.398 68.666zm5.967-125.304v113.275l74.574-56.638-74.574-56.637z"/></symbol><symbol viewBox="0 0 13 8" id="vk" xmlns="http://www.w3.org/2000/svg"><defs><path id="ya" d="M79.93 991.226a.996.996 0 0 0-.044-.091c-.225-.439-.656-.977-1.292-1.614l-.014-.015-.007-.007-.006-.007h-.007a8.176 8.176 0 0 1-.548-.6c-.14-.194-.172-.391-.095-.591.054-.151.257-.47.609-.957.185-.258.331-.465.44-.62.78-1.12 1.157-2.067 1.047-2.466l-.043-.093c-.028-.056-.102-.108-.222-.155a.871.871 0 0 0-.458-.023l-2.062.019c-.033-.016-.08-.014-.143.004l-.093.029-.036.023-.028.028a.375.375 0 0 0-.08.098.71.71 0 0 0-.07.164c-.225.754-.31 1.435-.58 1.94-.167.303-.32.564-.46.786-.14.221-.257.385-.352.49-.095.104-.18.188-.257.251-.077.064-.136.09-.176.08a4.7 4.7 0 0 1-.115-.029.475.475 0 0 1-.152-.179.848.848 0 0 1-.078-.285 3.371 3.371 0 0 1-.02-.646c.004-.15.006-.253.006-.307 0-.185.004-.385.01-.602l.017-.515c.005-.126.007-.26.007-.402a1.8 1.8 0 0 0-.024-.332 1.2 1.2 0 0 0-.07-.234.387.387 0 0 0-.14-.175.75.75 0 0 0-.226-.098 4.183 4.183 0 0 0-.914-.095c-.817 0-1.333.196-1.333.883l.04.088c.032.063.064.175.095.336.032.16.052.338.061.533.023.355.023.66 0 .913-.022.253-.044.45-.064.591a1.255 1.255 0 0 1-.173.504.122.122 0 0 1-.034.037.474.474 0 0 1-.182.036c-.064 0-.14-.034-.23-.102a1.68 1.68 0 0 1-.281-.281 3.764 3.764 0 0 1-.329-.5 9.007 9.007 0 0 1-.379-.76l-.108-.212c-.067-.136-.16-.334-.277-.595a10.13 10.13 0 0 1-.368-1.025.59.59 0 0 0-.159-.28l-.033-.027a.58.58 0 0 0-.259-.131l-1.816.017c-.186 0-.311.056-.378.167l-.026.052a.362.362 0 0 0-.02.14c0 .065.013.144.04.237.265.824.565 1.589.883 2.227.319.637.595 1.151.83 1.54.234.39.473.758.717 1.103.244.346.405.567.484.665.079.097.14.17.186.219l.17.175c.107.117.266.257.476.42.21.163.442.324.697.482.255.158.552.287.89.387.339.1.668.14.988.12h.779a.52.52 0 0 0 .358-.16l.027-.037a.51.51 0 0 0 .051-.135.8.8 0 0 0 .024-.2 2.55 2.55 0 0 1 .044-.566c.033-.168.072-.295.115-.38a.927.927 0 0 1 .26-.321.406.406 0 0 1 .054-.026c.109-.039.236-.001.383.113.147.115.284.256.413.424.128.168.283.357.463.566.181.21.339.365.474.467l.135.088c.09.058.208.112.353.16.144.05.27.062.378.037l1.733-.029c.171 0 .305-.03.4-.091.094-.061.15-.128.168-.201a.61.61 0 0 0 .004-.249.98.98 0 0 0-.048-.193z"/></defs><use xlink:href="#ya" transform="translate(-67 -984)"/></symbol><symbol viewBox="0 0 310 310" id="youtube2" xmlns="http://www.w3.org/2000/svg"><path d="M297.917 64.645c-11.19-13.302-31.85-18.728-71.306-18.728H83.386c-40.359 0-61.369 5.776-72.517 19.938C0 79.663 0 100.008 0 128.166v53.669c0 54.551 12.896 82.248 83.386 82.248h143.226c34.216 0 53.176-4.788 65.442-16.527C304.633 235.518 310 215.863 310 181.835v-53.669c0-29.695-.841-50.16-12.083-63.521zm-98.896 97.765l-65.038 33.991a9.997 9.997 0 0 1-14.632-8.863v-67.764a10 10 0 0 1 14.609-8.874l65.038 33.772a10 10 0 0 1 .023 17.738z"/></symbol></svg>