<svg xmlns="http://www.w3.org/2000/svg" xmlns:xlink="http://www.w3.org/1999/xlink" width="11" height="11" viewBox="0 0 11 11"><defs><path id="81jma" d="M35.052 734.473c-.336.336-.669.507-1.011.52-.622.026-1.094-.47-1.51-.908-.068-.072-.134-.142-.2-.207-.456-.455-.455-1.451.002-2.664.502-1.334 1.495-2.785 2.795-4.085 1.301-1.3 2.752-2.294 4.086-2.796 1.212-.457 2.208-.457 2.663-.002.066.066.137.133.209.201.437.416.933.888.908 1.51-.018.428-.283.844-.814 1.27-1.564 1.257-2.121.69-2.768.034l-.115-.116c-.108-.108-.605-.312-2.492 1.575-.616.617-1.066 1.142-1.339 1.561-.171.264-.43.736-.237.93l.118.118c.656.646 1.222 1.204-.035 2.767a3.603 3.603 0 0 1-.26.292zm.339-7.082c-1.264 1.264-2.227 2.668-2.711 3.954-.393 1.04-.427 1.931-.087 2.27.068.068.136.141.207.216.362.38.771.811 1.226.793.311-.013.648-.24.997-.675 1.048-1.303.677-1.668.064-2.272l-.12-.119c-.289-.288-.225-.757.189-1.394.286-.44.753-.986 1.387-1.62 1.567-1.566 2.525-2.067 3.016-1.576l.117.119c.604.614.97.984 2.272-.063.438-.352.663-.686.676-.998.019-.454-.413-.864-.793-1.225a12.36 12.36 0 0 1-.215-.208c-.34-.34-1.231-.306-2.272.087-1.285.484-2.69 1.447-3.953 2.71z"/></defs><g><g transform="translate(-32 -724)"><use fill="#fff" xlink:href="#81jma"/></g></g></svg>