<svg xmlns="http://www.w3.org/2000/svg" xmlns:xlink="http://www.w3.org/1999/xlink" width="33" height="33" viewBox="0 0 33 33"><defs><path id="3smja" d="M1091 2085.5c0 9.098-7.402 16.5-16.5 16.5-9.099 0-16.5-7.402-16.5-16.5 0-9.099 7.401-16.5 16.5-16.5 9.098 0 16.5 7.401 16.5 16.5zm-2.011 0c0-7.99-6.5-14.488-14.49-14.488-7.988 0-14.488 6.498-14.488 14.487 0 7.99 6.5 14.489 14.489 14.489 7.989 0 14.489-6.5 14.489-14.488zm-5.99 2.5c0 .75-.281 1-.999 1l-8.702-.011c-.718 0-1.3-.608-1.3-1.359L1072 2077c0-.75.282-1 1-1s1 .25 1 1v10h8c.718 0 1 .25 1 1z"/></defs><g><g transform="translate(-1058 -2069)"><use xlink:href="#3smja"/></g></g></svg>