<svg xmlns="http://www.w3.org/2000/svg" xmlns:xlink="http://www.w3.org/1999/xlink" width="8" height="8" viewBox="0 0 8 8"><defs><path id="fgd0a" d="M896 1049c0 2.206-1.794 4-4 4s-4-1.794-4-4 1.794-4 4-4 4 1.794 4 4zm-.94 0a3.064 3.064 0 0 0-3.06-3.06 3.064 3.064 0 0 0-3.06 3.06 3.064 3.064 0 0 0 3.06 3.06 3.064 3.064 0 0 0 3.06-3.06zm-2.06 1l-1.622-.015c-.203 0-.367-.14-.367-.315L891 1048c0-.783 1-.783 1 0v1h1c.627 0 .627 1 0 1z"/></defs><g><g transform="translate(-888 -1045)"><use fill="#fff" xlink:href="#fgd0a"/></g></g></svg>