<svg xmlns="http://www.w3.org/2000/svg" xmlns:xlink="http://www.w3.org/1999/xlink" width="13" height="8" viewBox="0 0 13 8"><defs><path id="auxma" d="M79.93 991.226a.996.996 0 0 0-.044-.091c-.225-.439-.656-.977-1.292-1.614l-.014-.015-.007-.007-.006-.007h-.007a8.176 8.176 0 0 1-.548-.6c-.14-.194-.172-.391-.095-.591.054-.151.257-.47.609-.957.185-.258.331-.465.44-.62.78-1.12 1.157-2.067 1.047-2.466l-.043-.093c-.028-.056-.102-.108-.222-.155a.871.871 0 0 0-.458-.023l-2.062.019c-.033-.016-.08-.014-.143.004l-.093.029-.036.023-.028.028a.375.375 0 0 0-.08.098.71.71 0 0 0-.07.164c-.225.754-.31 1.435-.58 1.94-.167.303-.32.564-.46.786-.14.221-.257.385-.352.49-.095.104-.18.188-.257.251-.077.064-.136.09-.176.08a4.7 4.7 0 0 1-.115-.029.475.475 0 0 1-.152-.179.848.848 0 0 1-.078-.285 3.371 3.371 0 0 1-.02-.646c.004-.15.006-.253.006-.307 0-.185.004-.385.01-.602l.017-.515c.005-.126.007-.26.007-.402 0-.14-.008-.251-.024-.332a1.2 1.2 0 0 0-.07-.234.387.387 0 0 0-.14-.175.75.75 0 0 0-.226-.098 4.183 4.183 0 0 0-.914-.095c-.817 0-1.333.196-1.333.883l.04.088c.032.063.064.175.095.336.032.16.052.338.061.533.023.355.023.66 0 .913-.022.253-.044.45-.064.591a1.255 1.255 0 0 1-.173.504.122.122 0 0 1-.034.037.474.474 0 0 1-.182.036c-.064 0-.14-.034-.23-.102a1.68 1.68 0 0 1-.281-.281 3.764 3.764 0 0 1-.329-.5 9.007 9.007 0 0 1-.379-.76l-.108-.212c-.067-.136-.16-.334-.277-.595-.118-.26-.28-.733-.368-1.025a.59.59 0 0 0-.159-.28l-.033-.027a.58.58 0 0 0-.259-.131l-1.816.017c-.186 0-.311.056-.378.167l-.026.052a.362.362 0 0 0-.02.14c0 .065.013.144.04.237.265.824.565 1.589.883 2.227.319.637.595 1.151.83 1.54.234.39.473.758.717 1.103.244.346.405.567.484.665.079.097.14.17.186.219l.17.175c.107.117.266.257.476.42.21.163.442.324.697.482.255.158.552.287.89.387.339.1.668.14.988.12h.779a.52.52 0 0 0 .358-.16l.027-.037a.51.51 0 0 0 .051-.135.8.8 0 0 0 .024-.2c-.005-.21.01-.398.044-.566.033-.168.072-.295.115-.38a.927.927 0 0 1 .26-.321.406.406 0 0 1 .054-.026c.109-.039.236-.001.383.113.147.115.284.256.413.424.128.168.283.357.463.566.181.21.339.365.474.467l.135.088c.09.058.208.112.353.16.144.05.27.062.378.037l1.733-.029c.171 0 .305-.03.4-.091.094-.061.15-.128.168-.201a.61.61 0 0 0 .004-.249.98.98 0 0 0-.048-.193z"/></defs><g><g transform="translate(-67 -984)"><use fill="#fff" xlink:href="#auxma"/></g></g></svg>