<svg xmlns="http://www.w3.org/2000/svg" xmlns:xlink="http://www.w3.org/1999/xlink" width="40" height="40" viewBox="0 0 40 40"><defs><path id="spu9a" d="M586.596 2942.01a3.593 3.593 0 1 1 0-.007v.008zm-1.472-.007a2.12 2.12 0 1 0-4.24 0 2.12 2.12 0 0 0 4.24 0zm17.876 0c0 .407-.33.736-.736.736H598.7c-.389 8.096-6.864 14.572-14.96 14.96v3.564a.736.736 0 0 1-1.473 0v-3.563c-8.098-.385-14.578-6.862-14.967-14.96h-3.564a.736.736 0 1 1 0-1.473h3.571c.385-8.099 6.862-14.579 14.96-14.968v-3.563a.736.736 0 1 1 1.473 0v3.57c8.096.39 14.571 6.865 14.96 14.96h3.564c.406 0 .736.33.736.737zm-9.998 0c0-.407.33-.736.736-.736h3.49a14.26 14.26 0 0 0-13.488-13.488v3.49a.736.736 0 0 1-1.473 0v-3.49a14.26 14.26 0 0 0-13.488 13.488h3.49a.736.736 0 1 1 0 1.472h-3.49a14.26 14.26 0 0 0 13.488 13.488v-3.49a.737.737 0 0 1 1.473 0v3.49a14.26 14.26 0 0 0 13.488-13.488h-3.49a.736.736 0 0 1-.736-.736z"/></defs><g><g transform="translate(-563 -2922)"><use fill="#f4b100" xlink:href="#spu9a"/></g></g></svg>