<svg xmlns="http://www.w3.org/2000/svg" xmlns:xlink="http://www.w3.org/1999/xlink" width="37" height="33" viewBox="0 0 37 33"><defs><path id="qwtaa" d="M1310 3143.61v17.334c0 2.334-1.353 5.056-5.172 5.056h-26.656c-2.387 0-5.172-1.325-5.172-5.056v-17.343c0-3.73 2.785-5.054 5.172-5.054h6.644v-3.932c0-.893.713-1.615 1.591-1.615h10.177c.88 0 1.592.722 1.592 1.615v3.932h6.652c2.387 0 5.172 1.323 5.172 5.062zm-23.585-5.063h10.17v-3.932l-10.17.007zm21.994 22.39l-.024-5.7h-11.936c.003.058.003.117 0 .176v2.496c0 .99-.79 1.793-1.766 1.793h-2.387v1.614a.802.802 0 0 1-.796.808.802.802 0 0 1-.796-.808v-1.614h-2.41c-.977 0-1.767-.803-1.767-1.793v-2.496a1.632 1.632 0 0 1 0-.177h-11.936v5.7c0 3.101 2.507 3.44 3.581 3.44h26.656c3.23 0 3.58-2.406 3.58-3.44zm-16.113-4.272v1.421h2.387c.096 0 .175-.08.175-.177v-2.496a.176.176 0 0 0-.175-.177h-6.366a.176.176 0 0 0-.175.177v2.496c0 .098.078.177.175.177h2.387v-1.42c0-.447.357-.808.796-.808.44 0 .796.361.796.807zm16.113-13.056c0-3.109-2.507-3.44-3.581-3.44h-26.656c-1.074 0-3.58.331-3.58 3.44v10.012h33.817z"/></defs><g><g transform="translate(-1273 -3133)"><use fill="#eead00" xlink:href="#qwtaa"/></g></g></svg>