<svg xmlns="http://www.w3.org/2000/svg" xmlns:xlink="http://www.w3.org/1999/xlink" width="39" height="34" viewBox="0 0 39 34"><defs><path id="gy55a" d="M1312 2933.314v18.355c0 2.566-1.434 5.315-5.452 5.315h-10.4v3.38h2.048c.464 0 .84.366.84.817a.828.828 0 0 1-.84.818h-11.077a.828.828 0 0 1-.84-.818c0-.451.376-.818.84-.818h1.733v-3.379h-10.4c-2.631 0-5.452-1.398-5.452-5.315v-18.355c0-3.917 2.82-5.314 5.452-5.314h28.096c2.631 0 5.452 1.397 5.452 5.314zm-17.53 23.67h-3.94v3.38h3.94zm15.852-5.315v-1.16h-35.644v1.16c0 3.318 2.64 3.68 3.774 3.68h28.096c3.403 0 3.774-2.574 3.774-3.68zm0-2.795v-15.56c0-3.318-2.64-3.679-3.774-3.679h-28.096c-1.134 0-3.774.361-3.774 3.679v15.56zm-13.296-12.028l-4.552 2.394a.707.707 0 0 1-.33.082h-5.106a.718.718 0 0 1-.714-.72 5.91 5.91 0 0 1 3.139-5.214c2.864-1.513 6.401-.396 7.9 2.492l.003.006c.17.36.017.79-.34.96zm-1.348-.925a4.393 4.393 0 0 0-3.534-1.782c-2.16.003-4.001 1.578-4.357 3.727h4.181zm3.014 5.067v.006c-.001 3.26-2.624 5.902-5.857 5.9-3.232 0-5.852-2.646-5.85-5.906 0-.398.32-.721.714-.721h4.957l4.397-2.313.003-.001a.712.712 0 0 1 .962.315c.44.838.672 1.772.674 2.72zm-1.457-.04a4.441 4.441 0 0 0-.222-1.361l-3.864 2.04a.707.707 0 0 1-.33.082h-4.358c.353 2.151 2.195 3.73 4.357 3.734h.027c2.444-.019 4.41-2.032 4.39-4.496z"/></defs><g><g transform="translate(-1273 -2928)"><use fill="#f4b100" xlink:href="#gy55a"/></g></g></svg>