<svg xmlns="http://www.w3.org/2000/svg" xmlns:xlink="http://www.w3.org/1999/xlink" width="41" height="29" viewBox="0 0 41 29"><defs><path id="4em4a" d="M604 3161.308a.695.695 0 0 1-.698.691h-39.604a.695.695 0 0 1-.698-.691c0-.381.312-.692.698-.692h2.889v-16.28c.094-2.406 2.042-4.336 4.471-4.429 2.569-.099 4.732 1.884 4.832 4.43v16.28h2.959v-19.73c.094-2.407 2.041-4.337 4.47-4.43 2.57-.098 4.733 1.884 4.832 4.43v19.73h2.96v-23.187c.093-2.407 2.041-4.336 4.47-4.429 2.57-.099 4.732 1.884 4.832 4.43v23.185h2.89c.385 0 .697.31.697.692zm-29.506-.692l-.007-16.28c-.078-1.665-1.424-2.999-3.105-3.076-1.798-.082-3.323 1.295-3.406 3.076v16.28zm12.262 0l-.007-19.73c-.078-1.665-1.424-2.998-3.105-3.075-1.798-.083-3.323 1.294-3.407 3.075v19.73zm12.261 0l-.007-23.186c-.078-1.666-1.423-2.999-3.105-3.076-1.798-.082-3.323 1.295-3.406 3.076v23.186z"/></defs><g><g transform="translate(-563 -3133)"><use fill="#fbb600" xlink:href="#4em4a"/></g></g></svg>